<?xml version="1.0" standalone="no"?>
<!DOCTYPE svg PUBLIC "-//W3C//DTD SVG 20010904//EN"
 "http://www.w3.org/TR/2001/REC-SVG-20010904/DTD/svg10.dtd">
<svg version="1.0" xmlns="http://www.w3.org/2000/svg"
 width="566.000000pt" height="343.000000pt" viewBox="0 0 566.000000 343.000000"
 preserveAspectRatio="xMidYMid meet">
<metadata>
Created by potrace 1.16, written by Peter Selinger 2001-2019
</metadata>
<g transform="translate(0.000000,343.000000) scale(0.100000,-0.100000)"
fill="#FFFFFF" stroke="none">
<path d="M510 2794 c0 -3 9 -17 20 -31 20 -25 20 -41 20 -954 l0 -929 335 0
335 0 0 145 0 145 -210 0 -210 0 0 815 0 815 -145 0 c-80 0 -145 -3 -145 -6z"/>
<path d="M1238 2777 l22 -23 0 -937 0 -937 128 0 127 0 -3 960 -2 960 -147 0
-146 0 21 -23z"/>
<path d="M1638 2777 l22 -23 0 -937 0 -937 130 0 130 0 1 508 c1 279 5 491 9
472 8 -38 206 -921 215 -957 5 -23 8 -23 160 -23 l155 0 0 960 0 960 -125 0
-125 0 -2 -510 -3 -511 -114 511 -115 510 -180 0 -179 0 21 -23z"/>
<path d="M2570 2792 c0 -5 9 -17 20 -27 20 -18 20 -31 20 -952 l0 -934 343 3
344 3 37 29 c21 16 47 47 57 70 18 39 19 81 19 846 0 498 -4 819 -10 840 -5
20 -24 50 -42 67 -64 62 -73 63 -448 63 -187 0 -340 -4 -340 -8z m590 -952 l0
-670 -150 0 -150 0 0 639 0 639 -37 31 -38 30 188 1 187 0 0 -670z"/>
<path d="M3490 2781 c5 -11 15 -23 20 -26 7 -4 10 -332 10 -941 l0 -934 335 0
335 0 0 145 0 145 -210 0 -210 0 0 235 0 234 -37 26 -38 25 188 0 187 0 0 145
0 144 -147 3 -148 3 -3 235 -2 235 -30 20 c-17 11 -30 23 -30 28 0 4 108 7
240 7 l240 0 0 145 0 145 -355 0 c-349 0 -356 0 -345 -19z"/>
<path d="M4279 2771 c21 -29 21 -32 21 -960 l0 -931 125 0 125 0 1 513 c1 420
3 505 13 472 7 -22 59 -253 117 -512 l104 -473 158 0 157 0 0 960 0 960 -125
0 -125 0 -2 -517 -3 -518 -115 515 -116 515 -178 3 -178 2 21 -29z"/>
<path d="M500 650 l0 -40 2300 0 2300 0 0 40 0 40 -2300 0 -2300 0 0 -40z"/>
</g>
</svg>
